<svg id="Layer_3" enable-background="new 0 0 64 64" height="512" viewBox="0 0 64 64" width="512" xmlns="http://www.w3.org/2000/svg"><g><path d="m38.059 39.74-6.944-2.136c2.277-1.96 3.921-4.632 4.571-7.673 2.43-.339 4.314-2.409 4.314-4.931 0-1.627-.793-3.061-2-3.974v-11.026c0-3.168-2.467-5.77-5.581-5.985-2.087-1.948-4.793-3.015-7.662-3.015h-7.515c-6.199 0-11.242 5.043-11.242 11.242v8.783c-1.207.914-2 2.348-2 3.975 0 2.522 1.884 4.592 4.314 4.931.651 3.041 2.294 5.714 4.571 7.673l-6.944 2.136c-2.955.91-4.941 3.6-4.941 6.692v15.568c0 .553.448 1 1 1h40c.552 0 1-.447 1-1v-15.568c0-3.092-1.986-5.782-4.941-6.692zm-10.766 7.967 1.441 1.441-6.734 10.944-6.734-10.943 1.441-1.441c.261-.261.357-.644.25-.997s-.399-.618-.761-.69l-4.196-.84v-5.211l2.422-.745 6.653 16.157c.154.374.52.618.925.618s.771-.244.925-.619l6.653-16.157 2.422.745v5.211l-4.196.839c-.361.072-.654.338-.761.69-.107.354-.011.737.25.998zm-10.375-7.676c1.578.617 3.288.969 5.082.969s3.504-.352 5.082-.969l-5.082 12.343zm13.518-21.031h-16.872c.271-.615.436-1.286.436-2v-1.93c0-1.142.929-2.07 2.07-2.07.41 0 .807.12 1.148.348l.562.375c2.506 1.672 5.932 1.672 8.438 0l.562-.375c.343-.228.74-.348 1.15-.348 1.142 0 2.07.929 2.07 2.07v1.93c0 .714.165 1.385.436 2zm-18.468 2h20.065c.577.429 1.238.751 1.968.899v2.576c-2.336 1.626-5.154 2.525-8.001 2.525-.378 0-.733-.146-1-.414l-.585-.586c-1.289-1.289-3.541-1.289-4.829 0l-.586.586c-.267.268-.622.414-1 .414-2.847 0-5.665-.899-8-2.525v-2.576c.729-.148 1.391-.47 1.968-.899zm23.99 6.829c.016-.276.042-.549.042-.829v-4.816c1.161.414 2 1.514 2 2.816 0 1.317-.859 2.427-2.042 2.829zm-27.958-15.587c0-5.096 4.146-9.242 9.243-9.242h7.515c2.469 0 4.79.961 6.536 2.707.186.188.441.293.706.293 2.206 0 4 1.794 4 4v10.101c-.323-.066-.658-.101-1-.101-1.654 0-3-1.346-3-3v-1.93c0-2.244-1.826-4.07-4.07-4.07-.806 0-1.586.236-2.258.684l-.562.375c-1.847 1.232-4.372 1.232-6.219 0l-.563-.375c-.671-.448-1.452-.684-2.258-.684-2.244 0-4.07 1.826-4.07 4.07v1.93c0 1.654-1.346 3-3 3-.342 0-.677.035-1 .101zm-2 12.758c0-1.302.839-2.402 2-2.816v4.816c0 .28.026.553.042.829-1.183-.402-2.042-1.512-2.042-2.829zm4 2v-.161c2.423 1.395 5.198 2.161 8 2.161.913 0 1.77-.355 2.414-1l.586-.586c.533-.535 1.465-.535 2 0l.585.586c.645.645 1.502 1 2.415 1 2.802 0 5.577-.766 8-2.161v.161c0 6.617-5.383 12-12 12s-12-5.383-12-12zm-7 19.432c0-2.209 1.418-4.13 3.529-4.779l3.471-1.068v5.415c0 .477.336.887.804.98l3.168.634-.679.679c-.328.327-.387.837-.145 1.231l7.062 11.476h-10.21v-11h-2v11h-5zm38 14.568h-5v-11h-2v11h-10.21l7.062-11.476c.243-.395.183-.904-.145-1.231l-.679-.679 3.168-.634c.468-.093.804-.503.804-.98v-5.415l3.47 1.068c2.111.649 3.53 2.57 3.53 4.779z"/><path d="m22 36c2.214 0 4.269-1.1 5.496-2.941l.336-.504-1.664-1.109-.336.504c-.856 1.283-2.289 2.05-3.832 2.05s-2.976-.767-3.832-2.051l-.336-.504-1.664 1.109.336.504c1.227 1.842 3.282 2.942 5.496 2.942z"/><path d="m57 45.521v-4.521h2v-2h-10v2h2v4.521c-3.569 1.259-6 4.641-6 8.479 0 4.963 4.038 9 9 9s9-4.037 9-9c0-3.838-2.431-7.22-6-8.479zm-4.75 1.709c.441-.114.75-.513.75-.969v-5.261h2v5.262c0 .456.309.854.75.969 3.091.796 5.25 3.581 5.25 6.769 0 1.074-.251 2.089-.685 3h-2.486c-1.557 0-3.021-.606-4.122-1.707-1.479-1.479-3.445-2.293-5.536-2.293h-1.087c.399-2.756 2.404-5.058 5.166-5.77zm-5.17 7.77h1.091c1.557 0 3.021.606 4.122 1.707 1.479 1.479 3.445 2.293 5.536 2.293h1.061c-1.263 1.235-2.988 2-4.889 2-3.52 0-6.433-2.614-6.921-6z"/><path d="m51 37c1.654 0 3-1.346 3-3s-1.346-3-3-3-3 1.346-3 3 1.346 3 3 3zm0-4c.551 0 1 .448 1 1s-.449 1-1 1-1-.448-1-1 .449-1 1-1z"/><path d="m57 31c2.206 0 4-1.794 4-4s-1.794-4-4-4-4 1.794-4 4 1.794 4 4 4zm0-6c1.103 0 2 .897 2 2s-.897 2-2 2-2-.897-2-2 .897-2 2-2z"/><path d="m16.5 25c.827 0 1.5-.673 1.5-1.5s-.673-1.5-1.5-1.5-1.5.673-1.5 1.5.673 1.5 1.5 1.5z"/><path d="m27.5 25c.827 0 1.5-.673 1.5-1.5s-.673-1.5-1.5-1.5-1.5.673-1.5 1.5.673 1.5 1.5 1.5z"/></g></svg>